<svg width="93" height="59" xmlns="http://www.w3.org/2000/svg" xmlns:xlink="http://www.w3.org/1999/xlink" overflow="hidden"><defs><clipPath id="clip0"><rect x="233" y="566" width="93" height="59"/></clipPath></defs><g clip-path="url(#clip0)" transform="translate(-233 -566)"><path d="M297 567.5C281.26 567.5 268.5 580.26 268.5 596 268.5 611.74 281.26 624.5 297 624.5 312.74 624.5 325.5 611.74 325.5 596 325.5 580.26 312.74 567.5 297 567.5ZM297 572.738C284.153 572.738 273.738 583.153 273.738 596 273.738 608.847 284.153 619.262 297 619.262 309.847 619.262 320.262 608.847 320.262 596 320.262 583.153 309.847 572.738 297 572.738" stroke="#F7C49D" stroke-width="1.32283" stroke-linejoin="round" stroke-miterlimit="10" fill="none" fill-rule="evenodd"/><path d="M263 567.5C247.26 567.5 234.5 580.26 234.5 596 234.5 611.74 247.26 624.5 263 624.5 278.74 624.5 291.5 611.74 291.5 596 291.5 580.26 278.74 567.5 263 567.5ZM263 572.738C250.153 572.738 239.738 583.153 239.738 596 239.738 608.847 250.153 619.262 263 619.262 275.847 619.262 286.262 608.847 286.262 596 286.262 583.153 275.847 572.738 263 572.738" stroke="#F7C49D" stroke-width="1.32283" stroke-linejoin="round" stroke-miterlimit="10" fill="none" fill-rule="evenodd"/></g></svg>